<!--?xml version="1.0" encoding="utf-8"?-->
<!-- Generator: Adobe Illustrator 18.0.0, SVG Export Plug-In . SVG Version: 6.00 Build 0)  -->

<svg version="1.1" id="_x32_" xmlns="http://www.w3.org/2000/svg" xmlns:xlink="http://www.w3.org/1999/xlink" x="0px" y="0px" viewBox="0 0 512 512" style="width: 48px; height: 48px; opacity: 1;" xml:space="preserve">
<style type="text/css">
	.st0{fill:#4B4B4B;}
</style>
<g>
	<path class="st0" d="M441.537,86.016C394.758,32.16,324.973,0,254.861,0h-1.058C197.549,0,138.192,23.243,90.944,63.773
		c-22.447,19.261-73.922,70.635-67.036,131.535c1.928,17.028,8.397,47.712,30.082,61.899c14.526,9.502,32.972,10.782,49.094,10.782
		c4.427,0,8.776-0.109,12.968-0.218c18.059-0.472,36.325-2.358,53.994-4.177c17.77-1.835,36.149-3.724,54.326-4.185
		c2.818-0.074,5.633-0.109,8.44-0.109c36.446,0,71.158,5.684,107.909,11.696l6.746,1.109c17.489,2.897,39.253,6.504,60.036,6.504
		c0,0,0.004,0,0.008,0c12.323,0,22.99-1.436,32.392-4.013c0.622-0.172,1.24-0.344,1.854-0.527c2.673-0.796,5.244-1.69,7.675-2.705
		c0.437-0.184,0.857-0.394,1.288-0.586c15.356-6.797,25.934-17.981,31.638-34.03C501.644,182.487,473.919,123.31,441.537,86.016z
		 M90.69,127.994c37.726-50.117,103.31-83.787,163.195-83.787h0.976c69.823,0,139.17,39.311,172.568,97.822
		c8.147,14.272,13.336,28.611,15.412,42.614c2.826,18.972,1.409,33.006-4.208,41.704c-4.521,7-16.365,7.39-24.2,7.648l-1,0.031
		c-1.823,0.066-3.65,0.098-5.473,0.098c-15.724,0-31.344-2.229-48.669-4.923c-7.936-1.234-15.869-2.561-23.805-3.884
		c-25.851-4.322-52.584-8.788-79.247-9.857c-5.813-0.23-11.618-0.336-17.411-0.336c-31.024,0-62.39,3.108-92.727,6.113l-2.795,0.281
		c-13.031,1.288-23.614,2.085-36.095,2.085c-1.741,0-3.517-0.016-5.348-0.047c-6.952-0.117-23.524-1.199-27.248-8.604
		C58.265,182.456,74.333,149.727,90.69,127.994z" style="fill: rgb(102, 80, 164);"></path>
	<path class="st0" d="M229.615,284.279c-2.895,0-5.71,0.199-8.59,0.262c-0.652,0.016-1.308,0.043-1.96,0.062
		c-4.494,0.121-9.04,0.137-13.423,0.41c-8.772,0.546-17.528,1.288-26.421,2.252c-2.276,9.096-4.821,18.797-8.01,28.092
		c-5.661,16.498-12.059,34.073-20.46,50.8l-2.975,5.84c-5.13,9.978-10.427,20.296-12.996,31.551
		c-3.252,14.268-2.979,29.158,0.784,43.051c7.452,27.498,27.76,49.871,54.322,59.853c9.795,3.681,20.097,5.547,30.626,5.547h0.004
		c36.36,0,69.746-22.298,83.069-55.493c3.061-7.624,4.681-15.713,6.25-23.536l0.925-4.56c2.881-13.87,5.309-28.053,7.214-42.161
		c4.126-30.59,5.582-61.922,4.189-93.27C285.752,286.961,257.207,284.279,229.615,284.279z M216.736,328.611v0.106
		c1.655,0,2.643,0.624,4.474,1.78c3.108,1.936,6.11,4.154,8.924,6.601c6.773,5.879,12.902,13.441,18.219,22.482
		c0.884,1.503,1.724,3.076,2.561,4.65c0.584,1.101,1.15,2.21,1.704,3.33c1.798,3.623,3.508,7.402,5.106,11.454
		c0.032,0.078,0.064,0.16,0.096,0.242c0.922,2.35,1.817,4.77,2.682,7.285l1.198,3.42c3.525,9.998,7.523,21.33,5.384,31.336
		c-2.315,11.637-4.704,23.676-14.023,33.202c-8.354,8.53-20.018,13.422-32.007,13.422c-2.951,0-5.91-0.297-8.791-0.882
		c-15.799-3.232-28.638-14.803-33.506-30.208c-4.763-15.077,0.34-28.568,5.321-38.64c12.152-24.586,21.127-45.686,28.4-66.888
		c0.84-2.459,0.84-2.459,4.006-2.58l0.188-0.121C216.696,328.599,216.711,328.611,216.736,328.611z" style="fill: rgb(102, 80, 164);"></path>
</g>
</svg>
